<svg width="101" height="101" fill="none" xmlns="http://www.w3.org/2000/svg"><path fill-rule="evenodd" clip-rule="evenodd" d="M47.784 2.656c-1.006 1.46-1.829 3.058-1.829 3.55 0 1.152 1.315 1.659 2.262.873.634-.526.754.175.877 5.12l.143 5.728h2.526l.143-5.729c.123-4.944.243-5.645.877-5.12.947.787 2.262.28 2.262-.872C55.045 4.83 51.508 0 50.5 0c-.502 0-1.682 1.153-2.716 2.656zm-32.85 12.277c-.515.515-.665 1.285-.464 2.383.932 5.085.96 5.155 2.126 5.323.83.12 1.232-.135 1.433-.908.251-.957.71-.658 4.203 2.742 3.884 3.78 5.06 4.28 5.761 2.452.196-.509-1.001-2.105-3.52-4.693-3.4-3.494-3.699-3.952-2.742-4.203.773-.201 1.027-.604.908-1.433-.168-1.166-.238-1.194-5.323-2.126-1.098-.2-1.867-.051-2.383.463zm66.623-.107c-2.581.491-3.054.75-3.196 1.75-.12.85.13 1.25.908 1.453.957.251.658.71-2.742 4.203-2.519 2.588-3.716 4.184-3.52 4.693.701 1.828 1.877 1.327 5.76-2.452 3.42-3.327 3.957-3.684 4.193-2.782.3 1.146 2.27 1.447 2.642.403.124-.347.425-1.954.67-3.57.353-2.325.295-3.09-.277-3.661-.397-.398-.876-.698-1.065-.668-.189.03-1.706.314-3.373.631zM46.13 23.252c-5.977 1.059-12.587 4.636-16.122 8.726-9.718 11.24-9.264 27.651 1.05 37.965 10.743 10.743 28.14 10.743 38.884 0 10.744-10.744 10.744-28.142 0-38.885-6.135-6.136-15.645-9.253-23.812-7.806zM60.755 28.4c5.282 2.516 9.32 6.538 11.795 11.752 1.584 3.334 1.862 4.482 2.075 8.551.152 2.906.001 5.737-.394 7.415-.684 2.9-2.843 7.462-4.511 9.532l-1.018 1.262-.01-3.728c-.007-2.051-.272-4.595-.588-5.653-.756-2.52-3.09-5.304-5.463-6.515l-1.901-.97-1.361 1.42-1.361 1.421 1.502.3c2.286.458 4.894 3.033 5.583 5.512.33 1.184.53 4.197.447 6.695l-.153 4.541-2.777 1.66c-3.98 2.376-6.135 2.89-12.12 2.89-5.985 0-8.14-.514-12.12-2.89l-2.778-1.66-.145-4.67c-.08-2.567.094-5.556.386-6.64.62-2.3 3.41-4.992 5.637-5.437l1.502-.3-1.36-1.421-1.362-1.421-1.901.97c-2.373 1.21-4.707 3.995-5.463 6.515-.316 1.058-.581 3.602-.587 5.653l-.011 3.728-1.035-1.262c-.568-.694-1.87-2.967-2.892-5.05-1.84-3.75-1.858-3.85-1.858-10.1 0-6.246.02-6.354 1.882-10.255 3.026-6.338 8.421-11.032 15.287-13.302 1.299-.43 4.005-.624 7.575-.545 5.245.117 5.776.228 9.498 2.002zm-15.369 6.377c-4.918 3.12-5.751 9.556-1.817 14.037 3.81 4.34 10.051 4.34 13.862 0 1.874-2.134 2.87-5.293 2.387-7.573-1.458-6.893-8.664-10.121-14.432-6.464zM2.627 47.794C1.176 48.81 0 50.026 0 50.51c0 .998 4.84 4.535 6.206 4.535 1.152 0 1.659-1.315.873-2.262-.526-.634.175-.754 5.12-.877l5.728-.143v-2.526l-5.729-.143c-4.944-.123-5.645-.243-5.12-.877.795-.957.276-2.262-.9-2.262-.508 0-2.106.828-3.551 1.84zm90.978-1.075c-.161.42-.019 1.094.316 1.498.526.634-.175.754-5.12.877l-5.728.143v2.526l5.729.143c4.944.123 5.645.243 5.12.877-.787.947-.28 2.262.872 2.262 1.376 0 6.206-3.537 6.206-4.545s-4.83-4.545-6.206-4.545c-.493 0-1.028.344-1.189.764zm-44.262 8.136c-.197.197-.358.775-.358 1.284 0 .51-.237.926-.528.926-1.108 0-3.007 2.501-3.007 3.961 0 2.05 1.325 3.464 4.292 4.582 2.766 1.041 3.313 2.224 1.143 2.474-.97.111-1.74-.228-2.583-1.137-.66-.712-1.579-1.295-2.042-1.295-2.14 0-1.218 3.542 1.254 4.82.739.382 1.464 1.158 1.612 1.725.359 1.372 2.386 1.387 2.742.02.146-.556.476-1.01.734-1.01 1.058 0 2.948-2.539 2.948-3.961 0-2.038-1.311-3.412-4.292-4.495-2.924-1.063-3.373-2.32-.916-2.558 1.267-.122 1.792.12 2.457 1.137.965 1.472 1.836 1.636 2.764.52.888-1.071-.07-3.058-2.014-4.173-.823-.473-1.562-1.314-1.642-1.871-.143-1.005-1.87-1.644-2.564-.949zm-27.11 21.672c-3.495 3.4-3.953 3.699-4.204 2.742-.203-.778-.603-1.028-1.451-.908-1.012.144-1.25.607-1.751 3.42-.88 4.933-.629 5.184 4.363 4.36 2.859-.473 3.304-.695 3.449-1.717.12-.85-.13-1.25-.908-1.454-.957-.25-.658-.709 2.742-4.202 2.519-2.588 3.716-4.184 3.52-4.693-.701-1.828-1.877-1.327-5.76 2.452zm51.28-3.014c-.436.437-.793.917-.793 1.068 0 .151 1.715 2.038 3.812 4.192 3.395 3.49 3.694 3.947 2.737 4.198-.778.203-1.028.603-.908 1.453.145 1.022.59 1.244 3.449 1.716 4.974.823 5.153.644 4.33-4.33-.472-2.859-.694-3.304-1.716-3.449-.85-.12-1.25.13-1.454.908-.25.957-.707.658-4.197-2.737-2.154-2.097-4.04-3.812-4.192-3.812-.15 0-.63.357-1.068.793zm-24.17 9.622c-.197.197-.358 2.848-.358 5.89 0 4.84-.094 5.456-.75 4.91-.963-.798-2.28-.302-2.28.859 0 1.376 3.537 6.206 4.545 6.206s4.545-4.83 4.545-6.206c0-1.152-1.315-1.659-2.262-.873-.634.526-.754-.175-.877-5.12-.133-5.327-.216-5.739-1.174-5.876-.567-.081-1.192.014-1.389.21z" fill="url(#paint0_linear_37_118)"/><defs><linearGradient id="paint0_linear_37_118" x1="8.927" y1="20.47" x2="80.019" y2="21.814" gradientUnits="userSpaceOnUse"><stop stop-color="#0A64B0"/><stop offset="1" stop-color="#2183C6"/></linearGradient></defs></svg>