<svg width="115" height="88" fill="none" xmlns="http://www.w3.org/2000/svg"><path fill-rule="evenodd" clip-rule="evenodd" d="M75.478.616c6.205 1.903 11.748 6.811 14.508 12.848 2.12 4.637 2.12 13.44 0 18.076-6.276 13.727-23.34 17.842-35.14 8.474-5.166-4.101-8.125-10.479-8.125-17.512 0-9.616 5.58-17.786 14.465-21.177C64.895-.091 72.02-.444 75.478.616zM61.575 4.932c-7.255 3.136-11.364 9.49-11.364 17.57 0 8.196 4.043 14.344 11.668 17.746 3.846 1.717 10.72 1.866 14.412.313 9.682-4.073 14.718-16.295 10.539-25.577C82.292 4.904 71.537.624 61.575 4.932zm8.418 1.715c.205.535 1.362 1.171 2.571 1.415 2.436.489 5.046 3.992 5.05 6.779.005 2.943-1.948 5.64-4.96 6.85l-2.88 1.158v5.018c0 3.87.233 5.018 1.017 5.018 1.19 0 3.974-3.328 3.974-4.75 0-1.046.688-1.218 2.332-.584 2.665 1.027-1.33 7.174-5.163 7.944-1.677.337-2.16.814-2.16 2.134 0 .935-.32 1.7-.713 1.7-.392 0-.713-.805-.713-1.79 0-1.34-.376-1.79-1.497-1.79-.824 0-2.588-1.095-3.922-2.434-2.628-2.64-3.184-5.848-1.612-9.312.75-1.654 4.419-4.007 6.247-4.007.49 0 .784-1.763.784-4.706 0-4.096-.162-4.677-1.248-4.471-.686.13-1.564.958-1.951 1.842-.757 1.73-3.931 2.288-3.931.692 0-1.681 2.3-4.238 4.728-5.257 1.321-.554 2.402-1.326 2.402-1.714 0-1.051 1.217-.855 1.645.265zm-.219 7.937c0 4.413.531 5.102 2.736 3.552 2.605-1.833 1.6-7.448-1.335-7.448-1.221 0-1.4.5-1.4 3.896zm-4.325 9.734c-2.727 1.465-1.119 8.567 1.94 8.567.705 0 .959-1.233.959-4.654 0-4.792-.36-5.278-2.899-3.913zM21.005 35.32c1.333 1.339 2.424 3.111 2.424 3.938 0 1.467.29 1.504 11.731 1.504h11.732l7.081 4.296 7.082 4.297 10.242.001c8.341 0 10.695.233 12.687 1.253 3.336 1.708 5.34 4.644 5.253 7.7-.039 1.376 0 2.502.085 2.502.086 0 3.74-1.61 8.12-3.58 8.833-3.971 10.66-4.248 14.074-2.129 4.003 2.485 4.674 7.692 1.4 10.857-.884.855-11.194 6.264-22.91 12.02-19.368 9.516-21.528 10.415-23.797 9.912-3.713-.823-41.127-7.746-41.861-7.746-.348 0-1.04 1.13-1.537 2.513-1.313 3.645-3.785 4.647-11.457 4.647-6.108 0-6.56-.108-8.769-2.088L.256 83.129.058 61.408C-.2 33.072-.132 32.917 12.27 32.896c6.231-.01 6.341.02 8.735 2.424zM4.769 37.65c-1.208 1.098-1.304 2.76-1.304 22.506 0 18.426.152 21.471 1.12 22.444 1.405 1.41 13.07 1.625 14.423.266.629-.63.856-6.707.856-22.878 0-20.215-.102-22.079-1.248-22.75-.686-.4-3.79-.739-6.895-.751-4.278-.017-5.965.266-6.952 1.164zm18.66 22.803c0 8.862.204 16.112.453 16.112.25 0 10.049 1.772 21.778 3.938 11.728 2.166 21.79 3.938 22.359 3.938.57 0 10.487-4.64 22.04-10.312 18.745-9.201 21.06-10.524 21.502-12.293.39-1.56.153-2.26-1.117-3.294-.887-.72-2.319-1.31-3.182-1.31s-6.202 2.088-11.864 4.64l-10.294 4.641-16.271.013-16.27.014.227-1.611c.227-1.6.337-1.614 15.272-1.97 16.554-.393 17.398-.618 17.398-4.63 0-4.115-1.218-4.547-13.547-4.805l-11.051-.231-7.13-4.411-7.13-4.412-11.587-.063-11.586-.065v16.111z" fill="url(#paint0_linear_37_59)"/><defs><linearGradient id="paint0_linear_37_59" x1="104.835" y1="17.835" x2="23.91" y2="19.834" gradientUnits="userSpaceOnUse"><stop stop-color="#0A64B0"/><stop offset="1" stop-color="#2183C6"/></linearGradient></defs></svg>