<svg width="110" height="63" fill="none" xmlns="http://www.w3.org/2000/svg"><path fill-rule="evenodd" clip-rule="evenodd" d="M2.17 2.2C.347 4.048 0 8.731 0 31.52c0 26.438.077 27.175 3.071 29.3C5.713 62.695 13.125 63 56.161 63c44.382 0 50.275-.258 52.272-2.28 2.821-2.86 3-2.432-9.55-22.755C89.281 22.417 88.42 20.412 88.42 13.622c0-4.431-.862-8.648-2.15-10.51C84.13.018 83.881 0 44.23 0 9.81 0 4.044.301 2.17 2.2zm82.648 2.815c.461 1.218.838 3.847.838 5.843v3.63l-3.516-3.347c-4.823-4.592-6.38-3.31-17.29 14.206L55.787 39.9l-26.512.38-26.512.38V22.663c0-9.898.415-18.417.922-18.93C4.19 3.22 22.464 2.8 44.293 2.8c34.914 0 39.787.266 40.525 2.215zm9.017 29.239c7.78 12.68 13.748 23.705 13.263 24.5-.56.918-11.164 1.446-29.04 1.446-17.876 0-28.481-.528-29.04-1.446C47.91 56.937 75.838 11.2 78.058 11.2c.896 0 7.996 10.374 15.777 23.054zM16.58 15.374c-6.408.817-5.257 1.006 7.334 1.198 8.214.126 14.619-.287 14.234-.919-.87-1.426-11.505-1.563-21.568-.28zm58.025 17.831c0 11.434.048 11.595 3.454 11.595 3.412 0 3.454-.141 3.454-11.885 0-11.82-.018-11.881-3.454-11.594-3.384.284-3.454.527-3.454 11.884zm3.772 4.214c-.3 2.904-.549.871-.556-4.519-.005-5.39.24-7.767.544-5.28.306 2.484.31 6.894.011 9.8zM51.68 46.9l-2.263 3.5H2.763v-7h51.181l-2.263 3.5zm23.172 3.85c.29 2.068 1.39 3.15 3.205 3.15 1.814 0 2.915-1.082 3.205-3.15.362-2.584-.214-3.15-3.205-3.15s-3.567.566-3.206 3.15zm3.896-.35c0 .77-.66 1.4-1.464 1.4-.804 0-1.078-.63-.609-1.4.47-.77 1.127-1.4 1.463-1.4.336 0 .61.63.61 1.4zM46.48 56.732l-.199 3.534-21.414-.384c-21.025-.375-21.422-.44-21.856-3.532l-.44-3.15H46.68l-.199 3.532z" fill="url(#paint0_linear_37_52)"/><defs><linearGradient id="paint0_linear_37_52" x1="9.723" y1="12.768" x2="87.092" y2="15.322" gradientUnits="userSpaceOnUse"><stop stop-color="#0A64B0"/><stop offset="1" stop-color="#2183C6"/></linearGradient></defs></svg>