<svg width="94" height="101" fill="none" xmlns="http://www.w3.org/2000/svg"><path fill-rule="evenodd" clip-rule="evenodd" d="M9.549.64C8.992.99 8.296 1.664 8 2.137l-.536.86-.059 36.358-.058 36.36H4.105c-1.81 0-3.434.1-3.674.229-.372.198-.431.478-.431 2.034 0 1.506.089 1.955.535 2.713a4.598 4.598 0 002.562 2.09c1.106.38 53.52.374 53.902-.006.404-.402.321-1.021-.17-1.284-.301-.16-7.985-.215-24.512-.174-13.24.032-24.072-.02-24.072-.118 0-.098.154-.476.344-.84.304-.588.357-5.013.466-38.791.114-35.588.148-38.164.506-38.683.21-.305.757-.74 1.214-.966 1.059-.524 2.136-.347 3.097.508.652.58.712.753.784 2.264.062 1.317.264 2.332.579 2.91.016.029 9.605.104 21.309.166l21.28.114.11 4.394c.115 4.492.182 4.806 1.032 4.818.627.008.743-.701.802-4.899l.06-4.313.67-.025c.367-.014 1.796-.04 3.175-.056 3.25-.039 3.398-.157 3.398-2.703 0-2.488-.714-3.786-2.607-4.739C63.819.034 61.208 0 37.155 0H10.56L9.55.64zm54.66 1.47c.894.67 1.127 1.176 1.25 2.707l.113 1.4H16.54l-.089-1.499c-.049-.824-.26-1.839-.47-2.254-.211-.416-.383-.792-.383-.836 0-.044 10.804-.053 24.01-.021 23.617.057 24.019.066 24.6.502zM20.04 15.24c-1.153 1.096-1.404 1.244-1.727 1.013-.915-.655-1.357-.783-1.707-.494-.187.155-.34.457-.34.67 0 .402 1.82 2.222 2.221 2.222.234 0 3.434-2.736 4.005-3.424.235-.284.259-.487.088-.758-.478-.76-1.14-.56-2.54.771zm48.924-.986c-.245.138-1.28 1.035-2.3 1.993-1.375 1.29-2.357 1.986-3.789 2.683-1.922.937-1.947.942-4.384.935-1.92-.005-2.813-.118-4.121-.522-3.143-.97-5.479-.21-6.755 2.198-.59 1.114-.635 1.36-.533 2.883.282 4.189 2.465 11.402 4.969 16.417 3.273 6.556 7.322 11.549 12.846 15.841 1.346 1.046 1.73 1.469 1.738 1.917.042 2.31-.045 14.116-.105 14.175-.04.04-.952-1.488-2.025-3.397-2.282-4.061-2.997-4.764-4.844-4.764-1.435 0-2.523.533-3.215 1.573-.705 1.062-.87 2.286-.461 3.423.175.489 1.696 4.275 3.379 8.414 1.682 4.139 3.312 8.225 3.622 9.08.31.856.869 2.05 1.242 2.656.67 1.085 2.178 2.387 2.764 2.387.238 0 .3.666.3 3.227 0 3.675.218 4.496 1.38 5.21.71.435 1.023.45 8.171.393l7.434-.059.644-.769.643-.769v-7.008l1.53-1.5c1.752-1.72 2.83-3.31 3.67-5.416 1.087-2.726 1.15-3.36 1.15-11.405 0-8.37-.006-8.414-1.485-9.464-.945-.67-3.06-.85-3.858-.329-.543.355-.574.343-1.33-.49-1.22-1.347-3.106-1.685-4.498-.808-.435.273-.558.223-1.391-.567-1.21-1.146-2.535-1.378-4.428-.774-.492.158-.501.129-.501-1.704v-1.865l1.727-1.32c8.837-6.753 14.88-16.825 17.334-28.891.681-3.35.685-4.332.02-5.754-1.234-2.642-3.888-3.614-7.271-2.661-1.844.519-4.41.668-5.815.338-2.237-.526-4.604-1.973-6.749-4.127-.476-.477-1.128-1.043-1.448-1.255-.67-.445-2.563-.517-3.257-.125zM25.489 15.86c-.069.177-.09.503-.047.723.074.381.633.402 10.77.402h10.693v-1.332l-10.646-.058c-9.136-.05-10.664-.012-10.77.265zm47.22 1.19c3.9 3.668 7.007 4.905 11.254 4.478 1.008-.101 2.402-.349 3.098-.55 2.946-.854 5.19.63 5.19 3.43 0 1.612-1.002 6.106-2.108 9.455-2.24 6.792-5.65 12.456-10.466 17.394-2.025 2.075-4.768 4.474-5.118 4.474-.074 0-.135-.704-.135-1.563 0-2.466-.967-3.914-2.973-4.453-1.2-.322-2.352.023-3.488 1.045-.922.83-1.012 1.09-1.238 3.59l-.146 1.617-1.259-1.043c-8.772-7.273-14.274-17.076-16.426-29.267-.37-2.093-.162-3.2.78-4.137.992-.99 2.094-1.17 3.928-.642.851.245 2.395.534 3.43.64 4.272.441 7.256-.733 11.256-4.428 1.167-1.08 1.848-1.548 2.246-1.548.4 0 1.053.453 2.175 1.508zm-51.206 7.597c-.245.096-.747.493-1.114.884-.368.39-.942.905-1.276 1.144-.606.434-.607.434-1.29-.069-.763-.562-1.39-.392-1.511.41-.067.44 1.694 2.292 2.177 2.292.416 0 4.24-3.506 4.24-3.888 0-.485-.752-.959-1.226-.773zm4.003 1.787c-.08.13-.084.479-.01.777l.138.543h17.808l.136-.543c.075-.298.071-.648-.009-.777-.202-.327-17.861-.327-18.064 0zm54.823 1.442c-.368.189-3.226 2.886-6.352 5.994-3.126 3.109-5.74 5.652-5.81 5.652-.07 0-1.624-1.507-3.453-3.349-1.829-1.841-3.596-3.49-3.927-3.663-1.307-.685-3.237-.069-3.904 1.245-.372.734-.358 1.879.034 2.614.176.33 2.483 2.748 5.127 5.373l4.808 4.774h2.675l7.462-7.445 7.462-7.445-.008-1.104c-.004-.606-.136-1.334-.293-1.616-.695-1.247-2.464-1.724-3.821-1.03zm2.441 2.186c.204.569-.093.901-6.796 7.595-3.855 3.85-7.192 7.1-7.414 7.223-.6.332-.988.012-5.628-4.635-4.954-4.961-4.957-4.965-4.46-5.719.772-1.174 1.263-.876 5.48 3.33 2.141 2.138 4.046 3.886 4.232 3.886.186 0 3.095-2.756 6.464-6.124 3.37-3.368 6.327-6.203 6.572-6.3.648-.253 1.306.062 1.55.744zm-62.604 6.13c-.79.732-1.525 1.332-1.631 1.332-.107 0-.376-.2-.598-.444-.656-.724-1.67-.444-1.67.46 0 .385 1.828 2.204 2.216 2.204.348 0 4.245-3.58 4.245-3.9 0-.334-.603-.985-.913-.985-.116 0-.859.6-1.65 1.332zm5.573.525c-.295.215-.363.451-.254.883l.149.59h17.808l.148-.59c.29-1.152.11-1.176-9.053-1.176-6.603 0-8.483.063-8.8.293zM20.04 47.214c-1.153 1.096-1.404 1.244-1.727 1.013-.915-.655-1.357-.783-1.707-.494-.187.155-.34.457-.34.67 0 .402 1.82 2.222 2.221 2.222.234 0 3.434-2.737 4.005-3.425.235-.284.259-.486.088-.757-.478-.761-1.14-.56-2.54.77zm5.448.62c-.069.177-.09.503-.047.724.074.38.633.401 10.77.401h10.693v-1.332l-10.646-.057c-9.136-.05-10.664-.012-10.77.264zm46.478 4.067l.67.611.085 11.398c.072 9.805.131 11.445.421 11.734.263.262.44.282.796.093.44-.235.46-.459.527-5.889.068-5.559.077-5.652.588-6.194.643-.68 1.488-.868 2.429-.54 1.297.455 1.398.984 1.398 7.334 0 4.89.047 5.696.353 5.949.255.211.455.227.724.059.324-.204.385-.906.482-5.538.078-3.707.197-5.455.395-5.8.618-1.076 2.086-1.273 3.027-.404l.59.544v5.546c0 4.745.05 5.596.35 5.895.192.191.473.348.623.348.731 0 .809-.516.809-5.39v-4.858l.678-.676c.587-.584.792-.659 1.505-.545.492.078 1.027.362 1.326.705.498.57.502.63.498 7.613-.004 8.075-.138 9.088-1.582 12.033-.747 1.52-1.288 2.241-2.79 3.712l-1.863 1.824v3.56c0 3.264-.037 3.597-.446 4.004-.425.424-.743.444-6.97.444-5.543 0-6.598-.052-7.019-.345-.476-.333-.495-.48-.498-3.942-.002-1.977-.08-3.716-.175-3.864-.094-.148-.636-.474-1.205-.724-1.24-.547-1.926-1.313-2.608-2.916-2.548-5.98-7.456-18.478-7.534-19.186-.125-1.13.52-2.028 1.603-2.231 1.392-.26 1.781.196 4.878 5.706 2.691 4.787 2.904 5.097 3.454 5.033l.587-.068.137-3.663c.075-2.015.151-7.41.17-11.99.037-8.888.07-9.164 1.146-9.707.89-.449 1.712-.339 2.441.325zm-13.712 2.744c-.084.134-.165 1.717-.18 3.518-.022 2.481.045 3.362.277 3.64.38.458.572.461 1.015.019.286-.285.35-.935.35-3.535 0-1.752-.06-3.343-.135-3.536-.154-.4-1.098-.476-1.327-.106zm-38.598 2.568c-.156.063-.534.605-.839 1.204-.442.87-.667 1.09-1.114 1.09-.935 0-2.093.602-2.325 1.21-.272.713-.015 1.361.875 2.21.635.606.668.718.537 1.826-.186 1.579.255 2.303 1.404 2.303.442 0 1.136-.205 1.543-.455l.738-.455.92.468c1.164.592 2.158.508 2.706-.226.353-.474.384-.723.209-1.662-.204-1.088-.195-1.117.665-2.047.882-.954 1.05-1.538.654-2.276-.248-.46-1.336-.897-2.24-.897-.467 0-.673-.156-.888-.675-.51-1.227-1.083-1.769-1.851-1.75-.39.01-.836.07-.994.132zm13.37-.005c-.157.066-.53.6-.828 1.187-.515 1.014-.6 1.075-1.665 1.221-.822.113-1.24.305-1.567.718-.64.812-.557 1.281.417 2.341.835.91.858.98.752 2.223-.087 1.004-.029 1.374.266 1.699.589.648 1.123.674 2.34.112l1.128-.521 1.127.52c1.22.564 1.751.537 2.344-.116.307-.338.354-.672.243-1.733-.137-1.306-.132-1.32.748-2.197.993-.99 1.09-1.504.44-2.328-.325-.412-.744-.605-1.556-.716-1.06-.145-1.14-.206-1.728-1.298-.549-1.02-.7-1.15-1.396-1.188-.428-.024-.908.01-1.065.076zm13.37.005c-.157.063-.528.591-.824 1.174-.507.995-.601 1.066-1.578 1.176-2.044.23-2.567 1.734-1.119 3.22.757.776.785.862.653 1.98-.185 1.568.26 2.293 1.405 2.293.442 0 1.137-.205 1.543-.455l.738-.455.92.468c1.164.592 2.159.508 2.706-.226.35-.469.384-.727.215-1.626-.195-1.04-.177-1.096.666-2.066.48-.553.865-1.23.865-1.522 0-.915-1.11-1.668-2.463-1.668-.54 0-.71-.14-.996-.824-.19-.454-.508-1.003-.706-1.221-.343-.377-1.384-.505-2.025-.248zM21.16 59.934c.446.871.595.965 1.958 1.239.399.08.724.215.724.3 0 .085-.313.429-.695.763-.653.571-.69.684-.595 1.826.056.67.07 1.217.034 1.217-.038 0-.502-.21-1.032-.466-1.016-.492-1.054-.486-2.917.426-.105.051-.122-.409-.038-1.023.147-1.064.117-1.157-.658-2.012l-.812-.896.85-.149c1.148-.2 1.73-.598 2.068-1.413.156-.376.37-.684.476-.684.105 0 .392.393.637.872zm13.162-.188c.338.811.92 1.213 2.046 1.41l.828.144-.766 1c-.69.9-.753 1.1-.63 1.99l.136.991-1.049-.462-1.048-.462-.985.461c-.542.254-1.023.461-1.069.461-.046 0-.007-.419.087-.931.21-1.146.008-1.716-.875-2.456l-.682-.572.941-.156c1.304-.215 1.648-.435 2.073-1.328.453-.95.63-.967.993-.09zm13.503.038c.476.919.876 1.204 1.918 1.37.461.074.839.172.839.219 0 .046-.312.417-.693.823-.632.675-.683.84-.593 1.917.054.648.039 1.151-.033 1.117a55.215 55.215 0 00-1.177-.476c-1.036-.41-1.052-.41-1.808.056-.42.258-.839.47-.932.47-.093 0-.103-.497-.023-1.103.139-1.043.104-1.15-.654-1.986l-.8-.883.85-.149c1.147-.2 1.728-.598 2.067-1.413.361-.869.573-.86 1.039.038zM7.353 78.28c0 1.725-1.223 2.986-2.896 2.986-1.68 0-2.897-1.303-2.897-3.101v-.674h5.793v.789z" fill="url(#paint0_linear_37_45)"/><defs><linearGradient id="paint0_linear_37_45" x1="8.309" y1="20.47" x2="74.476" y2="21.634" gradientUnits="userSpaceOnUse"><stop stop-color="#0A64B0"/><stop offset="1" stop-color="#2183C6"/></linearGradient></defs></svg>