<svg width="214" height="38" fill="none" xmlns="http://www.w3.org/2000/svg"><path d="M25.236 0H.768A.768.768 0 000 .768v3.08c0 .424.344.768.768.768H8.23c.424 0 .768.343.768.768v14.582a.764.764 0 00.765.768h4.37a.768.768 0 00.769-.768V5.384a.773.773 0 01.771-.768h9.563a.768.768 0 00.768-.769V.768A.768.768 0 0025.236 0z" fill="#0A64B0"/><path d="M92.82 8.43l-13.36-.006c-.972-.057-1.728-.801-1.728-1.862 0-1.295 1.127-1.82 1.773-1.82h17.182a.767.767 0 00.769-.775L97.438.765a.767.767 0 00-.769-.762H78.324c-3.187 0-6.218 2.86-6.218 6.382 0 5.016 4.508 6.574 6.328 6.574h13.234c1.417 0 1.773 1.157 1.773 1.605 0 .983-.75 1.686-1.614 1.686H73.194a.77.77 0 00-.768.756l-.048 2.945c-.006.43.338.78.768.78h19.485c4.627 0 6.227-4.018 6.227-5.853 0-3.53-2.556-6.448-6.042-6.448h.003z" fill="#2183C6"/><path d="M48.428 11.906h1.416c2.126 0 7.785-.487 7.713-5.401-.024-1.764-.673-3.289-2.027-4.586C54.197.637 52.161.003 49.743.003H31.104a.768.768 0 00-.768.768v19.192a.764.764 0 00.765.768h4.404a.769.769 0 00.768-.771l-.033-7.285a.77.77 0 01.768-.772h3.486c.206 0 .4.081.544.228l8.31 8.373a.765.765 0 00.544.227h5.844c.694 0 1.032-.846.533-1.324l-7.844-7.5h.003zm-1.56-3.724h-10.58l-.015-3.57h13.165c1.154 0 2.078.255 2.308 1.585.364 2.104-1.98 1.985-2.479 1.985h-2.4zM67.784.771v19.195a.773.773 0 01-.772.768h-4.355a.768.768 0 01-.768-.768V.77a.772.772 0 01.77-.768h4.356c.425 0 .769.344.769.768z" fill="#0A64B0"/><path d="M164.752 20.423h-4.242a.77.77 0 01-.649-.356l-5.787-9.135c-.413-.649-1.417-.359-1.417.412v8.628a.77.77 0 01-.771.768h-4.2a.768.768 0 01-.769-.768V.772a.773.773 0 01.772-.77h4.875c.263 0 .506.135.649.357l8.92 13.933a.769.769 0 001.295 0L172.369.356a.763.763 0 01.646-.353h4.705c.424 0 .768.344.768.768v19.195a.773.773 0 01-.771.768h-4.356a.768.768 0 01-.768-.768v-8.622c0-.77-1.004-1.06-1.417-.412l-5.775 9.13a.773.773 0 01-.649.358v.003zm-22.94-12.241h-12.164a.768.768 0 00-.768.768v2.65c0 .424.344.768.768.768h7.016v1.465c0 .8-.173 1.363-.538 1.71-.326.325-.954.49-1.916.508h-11.288c-1.046-.015-1.901-.293-2.583-.855-.672-.562-1.01-1.315-1.01-2.248l.006-2.966V7.874s.051-3.235 3.692-3.258h18.776a.771.771 0 00.768-.766l.012-3.073a.77.77 0 00-.768-.771h-19.727c-7.231 0-8.681 4.672-8.681 7.85l-.006 5.979c0 1.82.717 3.414 2.17 4.816 1.489 1.393 3.426 2.083 5.835 2.083h14.209c1.937-.033 3.581-.625 4.926-1.79 1.354-1.148 2.027-2.55 2.027-4.192l.009-5.802a.77.77 0 00-.768-.771l.003.003zM109.082.771v19.195a.773.773 0 01-.772.768h-4.355a.767.767 0 01-.768-.768V.77a.772.772 0 01.771-.768h4.355c.425 0 .769.344.769.768z" fill="#2183C6"/><path d="M39.316 37.152l-5.473-4.801a.76.76 0 00-.5-.191.761.761 0 00-.762.762v4.23h-1.444v-7.303h1.728l5.474 4.818a.761.761 0 001.264-.57v-4.248h1.45v7.303h-1.737zm78.65 0v-5.626a.76.76 0 00-.76-.76h-2.804v-.914h9.393v.914h-3.638a.76.76 0 00-.759.76v5.626h-1.432zm18.163-7.303h-1.423v7.303h1.423v-7.303zm-62.062 7.303v-7.303h1.429v5.599c0 .418.34.759.76.759h6.005v.942h-8.197l.003.003zm75.693 0c-.846 0-1.5-.23-2.003-.706-.481-.46-.717-.977-.717-1.572v-2.365c0-1.216.517-2.66 2.983-2.66h1.103v.026l.485-.017.131-.012h4.631v.914h-5.985c-1.548.018-1.904 1.262-1.913 1.74v2.021c0 .5.194.93.559 1.24.362.29.801.44 1.312.446h6.024l.006.942h-6.622l.006.003zm-131.166 0l-3.354-5.444a.764.764 0 00-1.298 0l-3.348 5.44h-1.57l4.557-7.302h2.083l4.553 7.303h-1.63l.007.003zm42.933 0l-3.354-5.444a.764.764 0 00-1.297 0l-3.349 5.44h-1.569l4.556-7.302h2.083l4.553 7.303h-1.63l.007.003z" fill="#000"/><path d="M202.137 29.726h-11.772a.966.966 0 00-.966.966v.003c0 .533.433.965.966.965h11.772a.966.966 0 00.966-.965v-.003a.966.966 0 00-.966-.966zm2.102 2.807h-11.77a.965.965 0 00-.965.969c0 .535.433.965.965.965h11.77a.967.967 0 100-1.934zm-2.102 2.616h-11.769a.966.966 0 100 1.934h11.769a.966.966 0 00.966-.966.97.97 0 00-.966-.968z" fill="#0A64B0"/><path d="M176.859 37.152l-3.354-5.444a.765.765 0 00-.649-.362.755.755 0 00-.648.362l-3.349 5.44h-1.569l4.556-7.302h2.083l4.553 7.303h-1.629l.006.003zM97.62 37.14v-2.272a.756.756 0 00-.203-.517l-4.242-4.502h1.868l2.72 3.046a.763.763 0 001.136 0l2.727-3.046h1.862l-4.242 4.499a.76.76 0 00-.206.52v2.272h-1.42z" fill="#000"/><path d="M213.876 19.56L201.907.364a.774.774 0 00-.652-.362h-5.689a.767.767 0 00-.651.362l-11.979 19.197a.768.768 0 00.652 1.175h4.867a.768.768 0 00.654-.365l1.657-2.69.953-1.551h13.237l.957 1.55 1.641 2.688a.77.77 0 00.657.368h5.019a.768.768 0 00.652-1.175l-.006-.003zM197.668 6.45a.769.769 0 011.309 0l3.085 4.995h-7.464l3.073-4.995h-.003z" fill="#2183C6"/></svg>